<?xml version="1.0" encoding="UTF-8"?>
<svg width="24px" height="24px" viewBox="0 0 24 24" version="1.1" xmlns="http://www.w3.org/2000/svg" xmlns:xlink="http://www.w3.org/1999/xlink">
    <!-- Generator: Sketch 46.2 (44496) - http://www.bohemiancoding.com/sketch -->
    <title>ic_add_to_calendar_dk</title>
    <desc>Created with Sketch.</desc>
    <defs></defs>
    <g id="Symbols" stroke="none" stroke-width="1" fill="none" fill-rule="evenodd">
        <g id="ic_add_to_calendar_dk">
            <g id="Icon-24px">
                <g>
                    <polygon id="Shape" points="0 0 24 0 24 24 0 24"></polygon>
                    <path d="M16,12 L16,14 L13,14 L13,17 L11,17 L11,14 L8,14 L8,12 L11,12 L11,9 L13,9 L13,12 L16,12 L16,12 Z M19,3 L18,3 L18,1 L16,1 L16,3 L8,3 L8,1 L6,1 L6,3 L5,3 C3.89,3 3.01,3.9 3.01,5 L3,19 C3,20.1 3.89,21 5,21 L19,21 C20.1,21 21,20.1 21,19 L21,5 C21,3.9 20.1,3 19,3 L19,3 Z M19,19 L5,19 L5,8 L19,8 L19,19 L19,19 Z" id="Shape" fill="#222121"></path>
                </g>
            </g>
        </g>
    </g>
</svg>