<?xml version="1.0" encoding="UTF-8"?>
<svg width="24px" height="24px" viewBox="0 0 24 24" version="1.1" xmlns="http://www.w3.org/2000/svg" xmlns:xlink="http://www.w3.org/1999/xlink">
    <!-- Generator: Sketch 46.2 (44496) - http://www.bohemiancoding.com/sketch -->
    <title>ic_closed_caption_outline_dk</title>
    <desc>Created with Sketch.</desc>
    <defs></defs>
    <g id="Symbols" stroke="none" stroke-width="1" fill="none" fill-rule="evenodd">
        <g id="ic_closed_caption_outline_dk">
            <g>
                <polygon id="Shape" points="0 0 24 0 24 24 0 24"></polygon>
                <path d="M19,5 L5,5 C4.44650776,5 4,5.44805277 4,6 L4,18 C4,18.5519472 4.44650776,19 5,19 L19,19 C19.5477153,19 20,18.5477153 20,18 L20,6 C20,5.45228475 19.5477153,5 19,5 Z" id="Shape" stroke="#222121" stroke-width="2"></path>
                <path d="M11,11 L9.5,11 L9.5,10.5 L7.5,10.5 L7.5,13.5 L9.5,13.5 L9.5,13 L11,13 L11,14 C11,14.55 10.55,15 10,15 L7,15 C6.45,15 6,14.55 6,14 L6,10 C6,9.45 6.45,9 7,9 L10,9 C10.55,9 11,9.45 11,10 L11,11 L11,11 Z" id="Path" fill="#222121"></path>
                <path d="M18,11 L16.5,11 L16.5,10.5 L14.5,10.5 L14.5,13.5 L16.5,13.5 L16.5,13 L18,13 L18,14 C18,14.55 17.55,15 17,15 L14,15 C13.45,15 13,14.55 13,14 L13,10 C13,9.45 13.45,9 14,9 L17,9 C17.55,9 18,9.45 18,10 L18,11 L18,11 Z" id="Path" fill="#222121"></path>
            </g>
        </g>
    </g>
</svg>