<?xml version="1.0" encoding="UTF-8"?>
<svg width="24px" height="24px" viewBox="0 0 24 24" version="1.1" xmlns="http://www.w3.org/2000/svg" xmlns:xlink="http://www.w3.org/1999/xlink">
    <!-- Generator: Sketch 46.2 (44496) - http://www.bohemiancoding.com/sketch -->
    <title>ic_download_progress_dk</title>
    <desc>Created with Sketch.</desc>
    <defs></defs>
    <g id="Symbols" stroke="none" stroke-width="1" fill="none" fill-rule="evenodd">
        <g id="ic_download_progress_dk">
            <g id="ic_download_progress">
                <g id="Icon-24px">
                    <polygon id="Shape" points="0 0 24 0 24 24 0 24"></polygon>
                    <g id="DOWNLOADING" transform="translate(2.000000, 2.000000)">
                        <path d="M10.2083333,20.1666667 C4.7084977,20.1666667 0.25,15.708169 0.25,10.2083333 C0.25,4.7084977 4.7084977,0.25 10.2083333,0.25 C15.708169,0.25 20.1666667,4.7084977 20.1666667,10.2083333 C20.1666667,15.708169 15.708169,20.1666667 10.2083333,20.1666667 Z M10.2083333,18.1666667 C14.6035995,18.1666667 18.1666667,14.6035995 18.1666667,10.2083333 C18.1666667,5.8130672 14.6035995,2.25 10.2083333,2.25 C5.8130672,2.25 2.25,5.8130672 2.25,10.2083333 C2.25,14.6035995 5.8130672,18.1666667 10.2083333,18.1666667 Z" id="BLANK" fill="#D2D8DA" fill-rule="nonzero"></path>
                        <path d="M20.1666667,10.2083333 C20.1666667,4.7084977 15.708169,0.25 10.2083333,0.25 C4.7084977,0.25 0.25,4.7084977 0.25,10.2083333 C0.25,15.708169 4.7084977,20.1666667 10.2083333,20.1666667 L10.2083333,18.1666667 C5.8130672,18.1666667 2.25,14.6035995 2.25,10.2083333 C2.25,5.8130672 5.8130672,2.25 10.2083333,2.25 C14.6035995,2.25 18.1666667,5.8130672 18.1666667,10.2083333 L20.1666667,10.2083333 Z" id="FILL" fill="#222121" fill-rule="nonzero"></path>
                        <rect id="STOP" fill="#222121" x="7.91666667" y="7.91666667" width="5" height="5"></rect>
                    </g>
                </g>
            </g>
        </g>
    </g>
</svg>