<?xml version="1.0" encoding="UTF-8"?>
<svg width="24px" height="24px" viewBox="0 0 24 24" version="1.1" xmlns="http://www.w3.org/2000/svg" xmlns:xlink="http://www.w3.org/1999/xlink">
    <!-- Generator: Sketch 46.2 (44496) - http://www.bohemiancoding.com/sketch -->
    <title>ic_hint_dk</title>
    <desc>Created with Sketch.</desc>
    <defs></defs>
    <g id="Symbols" stroke="none" stroke-width="1" fill="none" fill-rule="evenodd">
        <g id="ic_hint_dk">
            <g id="Icon-24px">
                <g>
                    <polygon id="Shape" points="0 0 24 0 24 24 0 24"></polygon>
                    <path d="M16.8759404,11.9469815 C16.8733679,11.9503585 16.8707955,11.9532159 16.8687947,11.9565929 C16.1505156,12.859292 15.3376283,13.8830436 14.6776576,15.4663388 C14.6727986,15.4764698 14.6673679,15.4899778 14.6642238,15.5003686 C14.6616514,15.5071226 14.6542199,15.5263455 14.6519333,15.5330995 C14.6047721,15.6725958 14.4175565,16.3085115 14.2966524,16.773499 L12.2487138,16.7696024 L10.2030618,16.773499 C10.0827293,16.3134472 9.89551369,15.6744142 9.83720531,15.5068628 L9.82148492,15.4663388 C9.16237166,13.8835632 8.34719777,12.8577334 7.62291633,11.9472412 C6.71656415,10.8081519 6,9.90857012 6,8.29072561 C6,5.27454183 8.68618663,3 12.2518579,3 C15.8138134,3 18.5,5.27454183 18.5,8.29072561 C18.4997142,9.90831035 17.78315,10.8078922 16.8759404,11.9469815 Z M11.3816333,18.4331442 L13.1457842,18.4331442 C13.698069,18.4331442 14.1457842,18.8808594 14.1457842,19.4331442 L14.1457842,20.1318179 L14.1457842,20.1318179 C14.1457842,20.6841027 13.698069,21.1318179 13.1457842,21.1318179 L11.3816333,21.1318179 C10.8293485,21.1318179 10.3816333,20.6841027 10.3816333,20.1318179 L10.3816333,19.4331442 C10.3816333,18.8808594 10.8293485,18.4331442 11.3816333,18.4331442 Z" id="Fill-1" fill="#222121"></path>
                </g>
            </g>
        </g>
    </g>
</svg>