<?xml version="1.0" encoding="UTF-8"?>
<svg width="24px" height="24px" viewBox="0 0 24 24" version="1.1" xmlns="http://www.w3.org/2000/svg" xmlns:xlink="http://www.w3.org/1999/xlink">
    <!-- Generator: Sketch 46.2 (44496) - http://www.bohemiancoding.com/sketch -->
    <title>ic_lab_dk</title>
    <desc>Created with Sketch.</desc>
    <defs></defs>
    <g id="Symbols" stroke="none" stroke-width="1" fill="none" fill-rule="evenodd">
        <g id="ic_lab_dk">
            <g id="Icon-24px">
                <g>
                    <polygon id="Shape" points="0 0 24 0 24 24 0 24"></polygon>
                    <path d="M15.2950628,5.13704108 C15.0757413,5.28358104 14.8227157,5.35685102 14.5379397,5.35685102 L14.452458,5.35685102 L14.452458,5.41790933 L14.452458,10.9986395 L19.5691449,17.7394776 C19.9110715,18.1954611 20.0495518,18.6961393 19.9843415,19.2415122 C19.9030118,19.7868851 19.6343552,20.2428686 19.1783717,20.6092185 C18.7143285,20.9755684 18.1767711,21.1587433 17.5661879,21.1587433 L6.45357433,21.2198016 C5.84299116,21.2281056 5.30567798,21.0490826 4.84163477,20.6827327 C4.37759157,20.3244425 4.10478301,19.868459 4.02345333,19.3147822 C3.94212365,18.7694093 4.07229998,18.2687311 4.41422656,17.8129918 L9.57976013,10.9988837 L9.57976013,5.41790933 L9.57976013,5.35685102 L9.4576435,5.35685102 C9.17262328,5.35685102 8.92033031,5.28358104 8.70052037,5.13704108 C8.64361402,5.09625412 8.58670767,5.05155943 8.52955709,5.00271278 C8.28532382,4.77459891 8.16320719,4.50203459 8.16320719,4.18453134 C8.16320719,3.85066447 8.28532382,3.56979621 8.52955709,3.34192657 C8.78990975,3.11405694 9.0993533,3 9.4576435,3 L14.5376954,3 C14.8959856,3 15.2012772,3.11405694 15.4535702,3.34192657 C15.7139228,3.57004044 15.8443434,3.85066447 15.8443434,4.18453134 C15.8443434,4.50203459 15.7141671,4.77484314 15.4535702,5.00271278 C15.4049678,5.05155943 15.3519691,5.09625412 15.2950628,5.13704108" id="LAB_VALUES" fill="#222121"></path>
                </g>
            </g>
        </g>
    </g>
</svg>