<?xml version="1.0" encoding="UTF-8"?>
<svg width="24px" height="24px" viewBox="0 0 24 24" version="1.1" xmlns="http://www.w3.org/2000/svg" xmlns:xlink="http://www.w3.org/1999/xlink">
    <!-- Generator: Sketch 46.2 (44496) - http://www.bohemiancoding.com/sketch -->
    <title>ic_reversed_10_dk</title>
    <desc>Created with Sketch.</desc>
    <defs></defs>
    <g id="Symbols" stroke="none" stroke-width="1" fill="none" fill-rule="evenodd">
        <g id="ic_reversed_10_dk">
            <g>
                <polygon id="a" points="24 24 0 24 0 0 24 0"></polygon>
                <path d="M20,13 C20,17.4 16.4,21 12,21 C7.6,21 4,17.4 4,13 L6,13 C6,16.3 8.7,19 12,19 C15.3,19 18,16.3 18,13 C18,9.7 15.3,7 12,7 L12,11 L7,6 L12,1 L12,5 C16.4,5 20,8.6 20,13 L20,13 Z M10.8466797,16 L10,16 L10,12.7363281 L8.98925781,13.0498047 L8.98925781,12.3613281 L10.7558594,11.7285156 L10.8466797,11.7285156 L10.8466797,16 Z M15.1035156,14.2363281 C15.1035156,14.8261748 14.9814465,15.2773422 14.7373047,15.5898438 C14.4931628,15.9023453 14.1357445,16.0585938 13.6650391,16.0585938 C13.200193,16.0585938 12.8447278,15.905275 12.5986328,15.5986328 C12.3525378,15.2919907 12.2265625,14.8525419 12.2207031,14.2802734 L12.2207031,13.4951172 C12.2207031,12.8994111 12.344237,12.4472672 12.5913086,12.1386719 C12.8383801,11.8300766 13.1943336,11.6757812 13.6591797,11.6757812 C14.1240258,11.6757812 14.479491,11.8286118 14.7255859,12.1342773 C14.9716809,12.4399429 15.0976562,12.8789034 15.1035156,13.4511719 L15.1035156,14.2363281 Z M14.2568359,13.375 C14.2568359,13.0214826 14.2084966,12.764161 14.1118164,12.6030273 C14.0151362,12.4418937 13.8642588,12.3613281 13.6591797,12.3613281 C13.4599599,12.3613281 13.3129888,12.4379875 13.2182617,12.5913086 C13.1235347,12.7446297 13.0732422,12.9843734 13.0673828,13.3105469 L13.0673828,14.3476562 C13.0673828,14.6953142 13.1147456,14.9536124 13.2094727,15.1225586 C13.3041997,15.2915048 13.4560536,15.3759766 13.6650391,15.3759766 C13.8720713,15.3759766 14.0214839,15.2949227 14.1132812,15.1328125 C14.2050786,14.9707023 14.2529297,14.7226579 14.2568359,14.3886719 L14.2568359,13.375 Z" id="Shape" fill="#222121"></path>
            </g>
        </g>
    </g>
</svg>