<?xml version="1.0" encoding="UTF-8"?>
<svg width="240px" height="200px" viewBox="0 0 240 200" version="1.1" xmlns="http://www.w3.org/2000/svg" xmlns:xlink="http://www.w3.org/1999/xlink">
    <!-- Generator: Sketch 46.2 (44496) - http://www.bohemiancoding.com/sketch -->
    <title>AnswerChoices-top-left-alighned</title>
    <desc>Created with Sketch.</desc>
    <defs></defs>
    <g id="Page-1" stroke="none" stroke-width="1" fill="none" fill-rule="evenodd">
        <g id="AnswerChoices-top-left-alighned">
            <rect id="boundary" x="0" y="0" width="240" height="200"></rect>
            <g id="disabled" transform="translate(200.000000, 0.000000)">
                <circle id="Oval" fill="#E0E0E0" cx="18" cy="18" r="18"></circle>
                <path d="M21.6943359,25 L20.7626953,21.9414062 L16.078125,21.9414062 L15.1464844,25 L12.2109375,25 L16.7460938,12.0976562 L20.0771484,12.0976562 L24.6298828,25 L21.6943359,25 Z M20.1123047,19.65625 C19.2509723,16.8847518 18.7661138,15.3173846 18.6577148,14.9541016 C18.5493159,14.5908185 18.4716799,14.303712 18.4248047,14.0927734 C18.2314443,14.8427772 17.6777389,16.6972508 16.7636719,19.65625 L20.1123047,19.65625 Z" id="A" fill="#FFFFFF"></path>
                <circle id="Oval" fill="#E0E0E0" cx="18" cy="58" r="18"></circle>
                <path d="M13.9907227,52.1503906 L17.9897461,52.1503906 C19.8120208,52.1503906 21.1347615,52.4096654 21.9580078,52.9282227 C22.7812541,53.4467799 23.1928711,54.2714787 23.1928711,55.4023438 C23.1928711,56.1699257 23.0126971,56.7998022 22.6523438,57.2919922 C22.2919904,57.7841821 21.8129913,58.0800776 21.215332,58.1796875 L21.215332,58.2675781 C22.0297892,58.4492197 22.6171857,58.78906 22.9775391,59.2871094 C23.3378924,59.7851587 23.5180664,60.4472615 23.5180664,61.2734375 C23.5180664,62.4453184 23.0947308,63.3593717 22.2480469,64.015625 C21.401363,64.6718783 20.2514721,65 18.7983398,65 L13.9907227,65 L13.9907227,52.1503906 Z M16.715332,57.2392578 L18.2973633,57.2392578 C19.0356482,57.2392578 19.5703108,57.1250011 19.9013672,56.8964844 C20.2324235,56.6679676 20.3979492,56.2900417 20.3979492,55.7626953 C20.3979492,55.2705054 20.2177752,54.9174815 19.8574219,54.7036133 C19.4970685,54.489745 18.92725,54.3828125 18.1479492,54.3828125 L16.715332,54.3828125 L16.715332,57.2392578 Z M16.715332,59.4013672 L16.715332,62.75 L18.4907227,62.75 C19.2407264,62.75 19.7944318,62.6064467 20.1518555,62.3193359 C20.5092791,62.0322251 20.6879883,61.5927764 20.6879883,61.0009766 C20.6879883,59.934565 19.9262771,59.4013672 18.402832,59.4013672 L16.715332,59.4013672 Z" id="B" fill="#FFFFFF"></path>
                <circle id="Oval" fill="#E0E0E0" cx="18" cy="98" r="18"></circle>
                <path d="M18.7607422,94.2333984 C17.7353464,94.2333984 16.9414091,94.6186485 16.3789062,95.3891602 C15.8164034,96.1596718 15.5351562,97.2333916 15.5351562,98.6103516 C15.5351562,101.4756 16.6103408,102.908203 18.7607422,102.908203 C19.6630904,102.908203 20.755853,102.682619 22.0390625,102.231445 L22.0390625,104.516602 C20.9843697,104.956057 19.8066471,105.175781 18.5058594,105.175781 C16.6367094,105.175781 15.2070362,104.608892 14.2167969,103.475098 C13.2265575,102.341303 12.7314453,100.713878 12.7314453,98.5927734 C12.7314453,97.2568293 12.9746069,96.0864308 13.4609375,95.081543 C13.9472681,94.0766551 14.6459915,93.306155 15.5571289,92.7700195 C16.4682663,92.233884 17.5361267,91.9658203 18.7607422,91.9658203 C20.0087953,91.9658203 21.262689,92.2675751 22.5224609,92.8710938 L21.6435547,95.0859375 C21.1630835,94.8574207 20.6796899,94.658204 20.1933594,94.4882812 C19.7070288,94.3183585 19.2294945,94.2333984 18.7607422,94.2333984 Z" id="C" fill="#FFFFFF"></path>
                <circle id="Oval" fill="#E0E0E0" cx="18" cy="138" r="18"></circle>
                <path d="M24.0366211,138.452148 C24.0366211,140.567393 23.4345763,142.187494 22.2304688,143.3125 C21.0263612,144.437506 19.287609,145 17.0141602,145 L13.3754883,145 L13.3754883,132.150391 L17.409668,132.150391 C19.5073347,132.150391 21.1362247,132.704096 22.2963867,133.811523 C23.4565488,134.918951 24.0366211,136.46581 24.0366211,138.452148 Z M21.206543,138.522461 C21.206543,135.762682 19.9878052,134.382812 17.550293,134.382812 L16.1000977,134.382812 L16.1000977,142.75 L17.269043,142.75 C19.8940561,142.75 21.206543,141.340834 21.206543,138.522461 Z" id="D" fill="#FFFFFF"></path>
                <circle id="Oval" fill="#E0E0E0" cx="18" cy="178" r="18"></circle>
                <polygon id="E" fill="#FFFFFF" points="22.3974609 185 14.9970703 185 14.9970703 172.150391 22.3974609 172.150391 22.3974609 174.382812 17.7216797 174.382812 17.7216797 177.204102 22.0722656 177.204102 22.0722656 179.436523 17.7216797 179.436523 17.7216797 182.75 22.3974609 182.75"></polygon>
            </g>
            <g id="Not-Select" fill="#B4B4B4">
                <path d="M18,34 C26.836556,34 34,26.836556 34,18 C34,9.163444 26.836556,2 18,2 C9.163444,2 2,9.163444 2,18 C2,26.836556 9.163444,34 18,34 Z M18,36 C8.0588745,36 0,27.9411255 0,18 C0,8.0588745 8.0588745,0 18,0 C27.9411255,0 36,8.0588745 36,18 C36,27.9411255 27.9411255,36 18,36 Z" id="Oval" fill-rule="nonzero"></path>
                <path d="M21.4833984,24.9023438 L20.5517578,21.84375 L15.8671875,21.84375 L14.9355469,24.9023438 L12,24.9023438 L16.5351562,12 L19.8662109,12 L24.4189453,24.9023438 L21.4833984,24.9023438 Z M19.9013672,19.5585938 C19.0400348,16.7870955 18.5551763,15.2197284 18.4467773,14.8564453 C18.3383784,14.4931622 18.2607424,14.2060557 18.2138672,13.9951172 C18.0205068,14.7451209 17.4668014,16.5995946 16.5527344,19.5585938 L19.9013672,19.5585938 Z" id="A"></path>
                <path d="M18,74 C26.836556,74 34,66.836556 34,58 C34,49.163444 26.836556,42 18,42 C9.163444,42 2,49.163444 2,58 C2,66.836556 9.163444,74 18,74 Z M18,76 C8.0588745,76 0,67.9411255 0,58 C0,48.0588745 8.0588745,40 18,40 C27.9411255,40 36,48.0588745 36,58 C36,67.9411255 27.9411255,76 18,76 Z" id="Oval" fill-rule="nonzero"></path>
                <path d="M13.9907227,52.1503906 L17.9897461,52.1503906 C19.8120208,52.1503906 21.1347615,52.4096654 21.9580078,52.9282227 C22.7812541,53.4467799 23.1928711,54.2714787 23.1928711,55.4023438 C23.1928711,56.1699257 23.0126971,56.7998022 22.6523438,57.2919922 C22.2919904,57.7841821 21.8129913,58.0800776 21.215332,58.1796875 L21.215332,58.2675781 C22.0297892,58.4492197 22.6171857,58.78906 22.9775391,59.2871094 C23.3378924,59.7851587 23.5180664,60.4472615 23.5180664,61.2734375 C23.5180664,62.4453184 23.0947308,63.3593717 22.2480469,64.015625 C21.401363,64.6718783 20.2514721,65 18.7983398,65 L13.9907227,65 L13.9907227,52.1503906 Z M16.715332,57.2392578 L18.2973633,57.2392578 C19.0356482,57.2392578 19.5703108,57.1250011 19.9013672,56.8964844 C20.2324235,56.6679676 20.3979492,56.2900417 20.3979492,55.7626953 C20.3979492,55.2705054 20.2177752,54.9174815 19.8574219,54.7036133 C19.4970685,54.489745 18.92725,54.3828125 18.1479492,54.3828125 L16.715332,54.3828125 L16.715332,57.2392578 Z M16.715332,59.4013672 L16.715332,62.75 L18.4907227,62.75 C19.2407264,62.75 19.7944318,62.6064467 20.1518555,62.3193359 C20.5092791,62.0322251 20.6879883,61.5927764 20.6879883,61.0009766 C20.6879883,59.934565 19.9262771,59.4013672 18.402832,59.4013672 L16.715332,59.4013672 Z" id="B"></path>
                <path d="M18,114 C26.836556,114 34,106.836556 34,98 C34,89.163444 26.836556,82 18,82 C9.163444,82 2,89.163444 2,98 C2,106.836556 9.163444,114 18,114 Z M18,116 C8.0588745,116 0,107.941125 0,98 C0,88.0588745 8.0588745,80 18,80 C27.9411255,80 36,88.0588745 36,98 C36,107.941125 27.9411255,116 18,116 Z" id="Oval" fill-rule="nonzero"></path>
                <path d="M18.7607422,94.2333984 C17.7353464,94.2333984 16.9414091,94.6186485 16.3789062,95.3891602 C15.8164034,96.1596718 15.5351562,97.2333916 15.5351562,98.6103516 C15.5351562,101.4756 16.6103408,102.908203 18.7607422,102.908203 C19.6630904,102.908203 20.755853,102.682619 22.0390625,102.231445 L22.0390625,104.516602 C20.9843697,104.956057 19.8066471,105.175781 18.5058594,105.175781 C16.6367094,105.175781 15.2070362,104.608892 14.2167969,103.475098 C13.2265575,102.341303 12.7314453,100.713878 12.7314453,98.5927734 C12.7314453,97.2568293 12.9746069,96.0864308 13.4609375,95.081543 C13.9472681,94.0766551 14.6459915,93.306155 15.5571289,92.7700195 C16.4682663,92.233884 17.5361267,91.9658203 18.7607422,91.9658203 C20.0087953,91.9658203 21.262689,92.2675751 22.5224609,92.8710938 L21.6435547,95.0859375 C21.1630835,94.8574207 20.6796899,94.658204 20.1933594,94.4882812 C19.7070288,94.3183585 19.2294945,94.2333984 18.7607422,94.2333984 Z" id="C"></path>
                <path d="M18,154 C26.836556,154 34,146.836556 34,138 C34,129.163444 26.836556,122 18,122 C9.163444,122 2,129.163444 2,138 C2,146.836556 9.163444,154 18,154 Z M18,156 C8.0588745,156 0,147.941125 0,138 C0,128.058875 8.0588745,120 18,120 C27.9411255,120 36,128.058875 36,138 C36,147.941125 27.9411255,156 18,156 Z" id="Oval" fill-rule="nonzero"></path>
                <path d="M24.0366211,138.452148 C24.0366211,140.567393 23.4345763,142.187494 22.2304688,143.3125 C21.0263612,144.437506 19.287609,145 17.0141602,145 L13.3754883,145 L13.3754883,132.150391 L17.409668,132.150391 C19.5073347,132.150391 21.1362247,132.704096 22.2963867,133.811523 C23.4565488,134.918951 24.0366211,136.46581 24.0366211,138.452148 Z M21.206543,138.522461 C21.206543,135.762682 19.9878052,134.382812 17.550293,134.382812 L16.1000977,134.382812 L16.1000977,142.75 L17.269043,142.75 C19.8940561,142.75 21.206543,141.340834 21.206543,138.522461 Z" id="D"></path>
                <path d="M18,194 C26.836556,194 34,186.836556 34,178 C34,169.163444 26.836556,162 18,162 C9.163444,162 2,169.163444 2,178 C2,186.836556 9.163444,194 18,194 Z M18,196 C8.0588745,196 0,187.941125 0,178 C0,168.058875 8.0588745,160 18,160 C27.9411255,160 36,168.058875 36,178 C36,187.941125 27.9411255,196 18,196 Z" id="Oval" fill-rule="nonzero"></path>
                <polygon id="E" points="22.3974609 185 14.9970703 185 14.9970703 172.150391 22.3974609 172.150391 22.3974609 174.382812 17.7216797 174.382812 17.7216797 177.204102 22.0722656 177.204102 22.0722656 179.436523 17.7216797 179.436523 17.7216797 182.75 22.3974609 182.75"></polygon>
            </g>
            <g id="Select" transform="translate(40.000000, 0.000000)">
                <circle id="Oval" fill="#240F6E" cx="18" cy="18" r="18"></circle>
                <path d="M21.6943359,25 L20.7626953,21.9414062 L16.078125,21.9414062 L15.1464844,25 L12.2109375,25 L16.7460938,12.0976562 L20.0771484,12.0976562 L24.6298828,25 L21.6943359,25 Z M20.1123047,19.65625 C19.2509723,16.8847518 18.7661138,15.3173846 18.6577148,14.9541016 C18.5493159,14.5908185 18.4716799,14.303712 18.4248047,14.0927734 C18.2314443,14.8427772 17.6777389,16.6972508 16.7636719,19.65625 L20.1123047,19.65625 Z" id="A" fill="#FFFFFF"></path>
                <circle id="Oval" fill="#240F6E" cx="18" cy="58" r="18"></circle>
                <path d="M13.9907227,52.1503906 L17.9897461,52.1503906 C19.8120208,52.1503906 21.1347615,52.4096654 21.9580078,52.9282227 C22.7812541,53.4467799 23.1928711,54.2714787 23.1928711,55.4023438 C23.1928711,56.1699257 23.0126971,56.7998022 22.6523438,57.2919922 C22.2919904,57.7841821 21.8129913,58.0800776 21.215332,58.1796875 L21.215332,58.2675781 C22.0297892,58.4492197 22.6171857,58.78906 22.9775391,59.2871094 C23.3378924,59.7851587 23.5180664,60.4472615 23.5180664,61.2734375 C23.5180664,62.4453184 23.0947308,63.3593717 22.2480469,64.015625 C21.401363,64.6718783 20.2514721,65 18.7983398,65 L13.9907227,65 L13.9907227,52.1503906 Z M16.715332,57.2392578 L18.2973633,57.2392578 C19.0356482,57.2392578 19.5703108,57.1250011 19.9013672,56.8964844 C20.2324235,56.6679676 20.3979492,56.2900417 20.3979492,55.7626953 C20.3979492,55.2705054 20.2177752,54.9174815 19.8574219,54.7036133 C19.4970685,54.489745 18.92725,54.3828125 18.1479492,54.3828125 L16.715332,54.3828125 L16.715332,57.2392578 Z M16.715332,59.4013672 L16.715332,62.75 L18.4907227,62.75 C19.2407264,62.75 19.7944318,62.6064467 20.1518555,62.3193359 C20.5092791,62.0322251 20.6879883,61.5927764 20.6879883,61.0009766 C20.6879883,59.934565 19.9262771,59.4013672 18.402832,59.4013672 L16.715332,59.4013672 Z" id="B" fill="#FFFFFF"></path>
                <circle id="Oval" fill="#240F6E" cx="18" cy="98" r="18"></circle>
                <path d="M18.7607422,94.2333984 C17.7353464,94.2333984 16.9414091,94.6186485 16.3789062,95.3891602 C15.8164034,96.1596718 15.5351562,97.2333916 15.5351562,98.6103516 C15.5351562,101.4756 16.6103408,102.908203 18.7607422,102.908203 C19.6630904,102.908203 20.755853,102.682619 22.0390625,102.231445 L22.0390625,104.516602 C20.9843697,104.956057 19.8066471,105.175781 18.5058594,105.175781 C16.6367094,105.175781 15.2070362,104.608892 14.2167969,103.475098 C13.2265575,102.341303 12.7314453,100.713878 12.7314453,98.5927734 C12.7314453,97.2568293 12.9746069,96.0864308 13.4609375,95.081543 C13.9472681,94.0766551 14.6459915,93.306155 15.5571289,92.7700195 C16.4682663,92.233884 17.5361267,91.9658203 18.7607422,91.9658203 C20.0087953,91.9658203 21.262689,92.2675751 22.5224609,92.8710938 L21.6435547,95.0859375 C21.1630835,94.8574207 20.6796899,94.658204 20.1933594,94.4882812 C19.7070288,94.3183585 19.2294945,94.2333984 18.7607422,94.2333984 Z" id="C" fill="#FFFFFF"></path>
                <circle id="Oval" fill="#240F6E" cx="18" cy="138" r="18"></circle>
                <path d="M24.0366211,138.452148 C24.0366211,140.567393 23.4345763,142.187494 22.2304688,143.3125 C21.0263612,144.437506 19.287609,145 17.0141602,145 L13.3754883,145 L13.3754883,132.150391 L17.409668,132.150391 C19.5073347,132.150391 21.1362247,132.704096 22.2963867,133.811523 C23.4565488,134.918951 24.0366211,136.46581 24.0366211,138.452148 Z M21.206543,138.522461 C21.206543,135.762682 19.9878052,134.382812 17.550293,134.382812 L16.1000977,134.382812 L16.1000977,142.75 L17.269043,142.75 C19.8940561,142.75 21.206543,141.340834 21.206543,138.522461 Z" id="D" fill="#FFFFFF"></path>
                <circle id="Oval" fill="#240F6E" cx="18" cy="178" r="18"></circle>
                <polygon id="E" fill="#FFFFFF" points="22.3974609 185 14.9970703 185 14.9970703 172.150391 22.3974609 172.150391 22.3974609 174.382812 17.7216797 174.382812 17.7216797 177.204102 22.0722656 177.204102 22.0722656 179.436523 17.7216797 179.436523 17.7216797 182.75 22.3974609 182.75"></polygon>
            </g>
            <g id="Incorrect" transform="translate(80.000000, 0.000000)">
                <circle id="Oval" fill="#D6083B" cx="18" cy="18" r="18"></circle>
                <path d="M21.6943359,25 L20.7626953,21.9414062 L16.078125,21.9414062 L15.1464844,25 L12.2109375,25 L16.7460938,12.0976562 L20.0771484,12.0976562 L24.6298828,25 L21.6943359,25 Z M20.1123047,19.65625 C19.2509723,16.8847518 18.7661138,15.3173846 18.6577148,14.9541016 C18.5493159,14.5908185 18.4716799,14.303712 18.4248047,14.0927734 C18.2314443,14.8427772 17.6777389,16.6972508 16.7636719,19.65625 L20.1123047,19.65625 Z" id="A" fill="#FFFFFF"></path>
                <circle id="Oval" fill="#D6083B" cx="18" cy="58" r="18"></circle>
                <path d="M13.9907227,52.1503906 L17.9897461,52.1503906 C19.8120208,52.1503906 21.1347615,52.4096654 21.9580078,52.9282227 C22.7812541,53.4467799 23.1928711,54.2714787 23.1928711,55.4023438 C23.1928711,56.1699257 23.0126971,56.7998022 22.6523438,57.2919922 C22.2919904,57.7841821 21.8129913,58.0800776 21.215332,58.1796875 L21.215332,58.2675781 C22.0297892,58.4492197 22.6171857,58.78906 22.9775391,59.2871094 C23.3378924,59.7851587 23.5180664,60.4472615 23.5180664,61.2734375 C23.5180664,62.4453184 23.0947308,63.3593717 22.2480469,64.015625 C21.401363,64.6718783 20.2514721,65 18.7983398,65 L13.9907227,65 L13.9907227,52.1503906 Z M16.715332,57.2392578 L18.2973633,57.2392578 C19.0356482,57.2392578 19.5703108,57.1250011 19.9013672,56.8964844 C20.2324235,56.6679676 20.3979492,56.2900417 20.3979492,55.7626953 C20.3979492,55.2705054 20.2177752,54.9174815 19.8574219,54.7036133 C19.4970685,54.489745 18.92725,54.3828125 18.1479492,54.3828125 L16.715332,54.3828125 L16.715332,57.2392578 Z M16.715332,59.4013672 L16.715332,62.75 L18.4907227,62.75 C19.2407264,62.75 19.7944318,62.6064467 20.1518555,62.3193359 C20.5092791,62.0322251 20.6879883,61.5927764 20.6879883,61.0009766 C20.6879883,59.934565 19.9262771,59.4013672 18.402832,59.4013672 L16.715332,59.4013672 Z" id="B" fill="#FFFFFF"></path>
                <circle id="Oval" fill="#D6083B" cx="18" cy="98" r="18"></circle>
                <path d="M18.7607422,94.2333984 C17.7353464,94.2333984 16.9414091,94.6186485 16.3789062,95.3891602 C15.8164034,96.1596718 15.5351562,97.2333916 15.5351562,98.6103516 C15.5351562,101.4756 16.6103408,102.908203 18.7607422,102.908203 C19.6630904,102.908203 20.755853,102.682619 22.0390625,102.231445 L22.0390625,104.516602 C20.9843697,104.956057 19.8066471,105.175781 18.5058594,105.175781 C16.6367094,105.175781 15.2070362,104.608892 14.2167969,103.475098 C13.2265575,102.341303 12.7314453,100.713878 12.7314453,98.5927734 C12.7314453,97.2568293 12.9746069,96.0864308 13.4609375,95.081543 C13.9472681,94.0766551 14.6459915,93.306155 15.5571289,92.7700195 C16.4682663,92.233884 17.5361267,91.9658203 18.7607422,91.9658203 C20.0087953,91.9658203 21.262689,92.2675751 22.5224609,92.8710938 L21.6435547,95.0859375 C21.1630835,94.8574207 20.6796899,94.658204 20.1933594,94.4882812 C19.7070288,94.3183585 19.2294945,94.2333984 18.7607422,94.2333984 Z" id="C" fill="#FFFFFF"></path>
                <circle id="Oval" fill="#D6083B" cx="18" cy="138" r="18"></circle>
                <path d="M24.0366211,138.452148 C24.0366211,140.567393 23.4345763,142.187494 22.2304688,143.3125 C21.0263612,144.437506 19.287609,145 17.0141602,145 L13.3754883,145 L13.3754883,132.150391 L17.409668,132.150391 C19.5073347,132.150391 21.1362247,132.704096 22.2963867,133.811523 C23.4565488,134.918951 24.0366211,136.46581 24.0366211,138.452148 Z M21.206543,138.522461 C21.206543,135.762682 19.9878052,134.382812 17.550293,134.382812 L16.1000977,134.382812 L16.1000977,142.75 L17.269043,142.75 C19.8940561,142.75 21.206543,141.340834 21.206543,138.522461 Z" id="D" fill="#FFFFFF"></path>
                <circle id="Oval" fill="#D6083B" cx="18" cy="178" r="18"></circle>
                <polygon id="E" fill="#FFFFFF" points="22.3974609 185 14.9970703 185 14.9970703 172.150391 22.3974609 172.150391 22.3974609 174.382812 17.7216797 174.382812 17.7216797 177.204102 22.0722656 177.204102 22.0722656 179.436523 17.7216797 179.436523 17.7216797 182.75 22.3974609 182.75"></polygon>
            </g>
            <g id="Correct" transform="translate(120.000000, 0.000000)">
                <circle id="Oval" fill="#4E9D2D" cx="18" cy="18" r="18"></circle>
                <path d="M21.6943359,25 L20.7626953,21.9414062 L16.078125,21.9414062 L15.1464844,25 L12.2109375,25 L16.7460938,12.0976562 L20.0771484,12.0976562 L24.6298828,25 L21.6943359,25 Z M20.1123047,19.65625 C19.2509723,16.8847518 18.7661138,15.3173846 18.6577148,14.9541016 C18.5493159,14.5908185 18.4716799,14.303712 18.4248047,14.0927734 C18.2314443,14.8427772 17.6777389,16.6972508 16.7636719,19.65625 L20.1123047,19.65625 Z" id="A" fill="#FFFFFF"></path>
                <circle id="Oval" fill="#4E9D2D" cx="18" cy="58" r="18"></circle>
                <path d="M13.9907227,52.1503906 L17.9897461,52.1503906 C19.8120208,52.1503906 21.1347615,52.4096654 21.9580078,52.9282227 C22.7812541,53.4467799 23.1928711,54.2714787 23.1928711,55.4023438 C23.1928711,56.1699257 23.0126971,56.7998022 22.6523438,57.2919922 C22.2919904,57.7841821 21.8129913,58.0800776 21.215332,58.1796875 L21.215332,58.2675781 C22.0297892,58.4492197 22.6171857,58.78906 22.9775391,59.2871094 C23.3378924,59.7851587 23.5180664,60.4472615 23.5180664,61.2734375 C23.5180664,62.4453184 23.0947308,63.3593717 22.2480469,64.015625 C21.401363,64.6718783 20.2514721,65 18.7983398,65 L13.9907227,65 L13.9907227,52.1503906 Z M16.715332,57.2392578 L18.2973633,57.2392578 C19.0356482,57.2392578 19.5703108,57.1250011 19.9013672,56.8964844 C20.2324235,56.6679676 20.3979492,56.2900417 20.3979492,55.7626953 C20.3979492,55.2705054 20.2177752,54.9174815 19.8574219,54.7036133 C19.4970685,54.489745 18.92725,54.3828125 18.1479492,54.3828125 L16.715332,54.3828125 L16.715332,57.2392578 Z M16.715332,59.4013672 L16.715332,62.75 L18.4907227,62.75 C19.2407264,62.75 19.7944318,62.6064467 20.1518555,62.3193359 C20.5092791,62.0322251 20.6879883,61.5927764 20.6879883,61.0009766 C20.6879883,59.934565 19.9262771,59.4013672 18.402832,59.4013672 L16.715332,59.4013672 Z" id="B" fill="#FFFFFF"></path>
                <circle id="Oval" fill="#4E9D2D" cx="18" cy="98" r="18"></circle>
                <path d="M18.7607422,94.2333984 C17.7353464,94.2333984 16.9414091,94.6186485 16.3789062,95.3891602 C15.8164034,96.1596718 15.5351562,97.2333916 15.5351562,98.6103516 C15.5351562,101.4756 16.6103408,102.908203 18.7607422,102.908203 C19.6630904,102.908203 20.755853,102.682619 22.0390625,102.231445 L22.0390625,104.516602 C20.9843697,104.956057 19.8066471,105.175781 18.5058594,105.175781 C16.6367094,105.175781 15.2070362,104.608892 14.2167969,103.475098 C13.2265575,102.341303 12.7314453,100.713878 12.7314453,98.5927734 C12.7314453,97.2568293 12.9746069,96.0864308 13.4609375,95.081543 C13.9472681,94.0766551 14.6459915,93.306155 15.5571289,92.7700195 C16.4682663,92.233884 17.5361267,91.9658203 18.7607422,91.9658203 C20.0087953,91.9658203 21.262689,92.2675751 22.5224609,92.8710938 L21.6435547,95.0859375 C21.1630835,94.8574207 20.6796899,94.658204 20.1933594,94.4882812 C19.7070288,94.3183585 19.2294945,94.2333984 18.7607422,94.2333984 Z" id="C" fill="#FFFFFF"></path>
                <circle id="Oval" fill="#4E9D2D" cx="18" cy="138" r="18"></circle>
                <path d="M24.0366211,138.452148 C24.0366211,140.567393 23.4345763,142.187494 22.2304688,143.3125 C21.0263612,144.437506 19.287609,145 17.0141602,145 L13.3754883,145 L13.3754883,132.150391 L17.409668,132.150391 C19.5073347,132.150391 21.1362247,132.704096 22.2963867,133.811523 C23.4565488,134.918951 24.0366211,136.46581 24.0366211,138.452148 Z M21.206543,138.522461 C21.206543,135.762682 19.9878052,134.382812 17.550293,134.382812 L16.1000977,134.382812 L16.1000977,142.75 L17.269043,142.75 C19.8940561,142.75 21.206543,141.340834 21.206543,138.522461 Z" id="D" fill="#FFFFFF"></path>
                <circle id="Oval" fill="#4E9D2D" cx="18" cy="178" r="18"></circle>
                <polygon id="E" fill="#FFFFFF" points="22.3974609 185 14.9970703 185 14.9970703 172.150391 22.3974609 172.150391 22.3974609 174.382812 17.7216797 174.382812 17.7216797 177.204102 22.0722656 177.204102 22.0722656 179.436523 17.7216797 179.436523 17.7216797 182.75 22.3974609 182.75"></polygon>
            </g>
            <g id="Correct-Answwer" transform="translate(160.000000, 0.000000)" fill="#4E9D2D">
                <path d="M18,34 C26.836556,34 34,26.836556 34,18 C34,9.163444 26.836556,2 18,2 C9.163444,2 2,9.163444 2,18 C2,26.836556 9.163444,34 18,34 Z M18,36 C8.0588745,36 0,27.9411255 0,18 C0,8.0588745 8.0588745,0 18,0 C27.9411255,0 36,8.0588745 36,18 C36,27.9411255 27.9411255,36 18,36 Z" id="Oval" fill-rule="nonzero"></path>
                <path d="M21.6943359,25 L20.7626953,21.9414062 L16.078125,21.9414062 L15.1464844,25 L12.2109375,25 L16.7460938,12.0976562 L20.0771484,12.0976562 L24.6298828,25 L21.6943359,25 Z M20.1123047,19.65625 C19.2509723,16.8847518 18.7661138,15.3173846 18.6577148,14.9541016 C18.5493159,14.5908185 18.4716799,14.303712 18.4248047,14.0927734 C18.2314443,14.8427772 17.6777389,16.6972508 16.7636719,19.65625 L20.1123047,19.65625 Z" id="A"></path>
                <path d="M18,74 C26.836556,74 34,66.836556 34,58 C34,49.163444 26.836556,42 18,42 C9.163444,42 2,49.163444 2,58 C2,66.836556 9.163444,74 18,74 Z M18,76 C8.0588745,76 0,67.9411255 0,58 C0,48.0588745 8.0588745,40 18,40 C27.9411255,40 36,48.0588745 36,58 C36,67.9411255 27.9411255,76 18,76 Z" id="Oval" fill-rule="nonzero"></path>
                <path d="M13.9907227,52.1503906 L17.9897461,52.1503906 C19.8120208,52.1503906 21.1347615,52.4096654 21.9580078,52.9282227 C22.7812541,53.4467799 23.1928711,54.2714787 23.1928711,55.4023438 C23.1928711,56.1699257 23.0126971,56.7998022 22.6523438,57.2919922 C22.2919904,57.7841821 21.8129913,58.0800776 21.215332,58.1796875 L21.215332,58.2675781 C22.0297892,58.4492197 22.6171857,58.78906 22.9775391,59.2871094 C23.3378924,59.7851587 23.5180664,60.4472615 23.5180664,61.2734375 C23.5180664,62.4453184 23.0947308,63.3593717 22.2480469,64.015625 C21.401363,64.6718783 20.2514721,65 18.7983398,65 L13.9907227,65 L13.9907227,52.1503906 Z M16.715332,57.2392578 L18.2973633,57.2392578 C19.0356482,57.2392578 19.5703108,57.1250011 19.9013672,56.8964844 C20.2324235,56.6679676 20.3979492,56.2900417 20.3979492,55.7626953 C20.3979492,55.2705054 20.2177752,54.9174815 19.8574219,54.7036133 C19.4970685,54.489745 18.92725,54.3828125 18.1479492,54.3828125 L16.715332,54.3828125 L16.715332,57.2392578 Z M16.715332,59.4013672 L16.715332,62.75 L18.4907227,62.75 C19.2407264,62.75 19.7944318,62.6064467 20.1518555,62.3193359 C20.5092791,62.0322251 20.6879883,61.5927764 20.6879883,61.0009766 C20.6879883,59.934565 19.9262771,59.4013672 18.402832,59.4013672 L16.715332,59.4013672 Z" id="B"></path>
                <path d="M18,114 C26.836556,114 34,106.836556 34,98 C34,89.163444 26.836556,82 18,82 C9.163444,82 2,89.163444 2,98 C2,106.836556 9.163444,114 18,114 Z M18,116 C8.0588745,116 0,107.941125 0,98 C0,88.0588745 8.0588745,80 18,80 C27.9411255,80 36,88.0588745 36,98 C36,107.941125 27.9411255,116 18,116 Z" id="Oval" fill-rule="nonzero"></path>
                <path d="M18.7607422,94.2333984 C17.7353464,94.2333984 16.9414091,94.6186485 16.3789062,95.3891602 C15.8164034,96.1596718 15.5351562,97.2333916 15.5351562,98.6103516 C15.5351562,101.4756 16.6103408,102.908203 18.7607422,102.908203 C19.6630904,102.908203 20.755853,102.682619 22.0390625,102.231445 L22.0390625,104.516602 C20.9843697,104.956057 19.8066471,105.175781 18.5058594,105.175781 C16.6367094,105.175781 15.2070362,104.608892 14.2167969,103.475098 C13.2265575,102.341303 12.7314453,100.713878 12.7314453,98.5927734 C12.7314453,97.2568293 12.9746069,96.0864308 13.4609375,95.081543 C13.9472681,94.0766551 14.6459915,93.306155 15.5571289,92.7700195 C16.4682663,92.233884 17.5361267,91.9658203 18.7607422,91.9658203 C20.0087953,91.9658203 21.262689,92.2675751 22.5224609,92.8710938 L21.6435547,95.0859375 C21.1630835,94.8574207 20.6796899,94.658204 20.1933594,94.4882812 C19.7070288,94.3183585 19.2294945,94.2333984 18.7607422,94.2333984 Z" id="C"></path>
                <path d="M18,154 C26.836556,154 34,146.836556 34,138 C34,129.163444 26.836556,122 18,122 C9.163444,122 2,129.163444 2,138 C2,146.836556 9.163444,154 18,154 Z M18,156 C8.0588745,156 0,147.941125 0,138 C0,128.058875 8.0588745,120 18,120 C27.9411255,120 36,128.058875 36,138 C36,147.941125 27.9411255,156 18,156 Z" id="Oval" fill-rule="nonzero"></path>
                <path d="M24.0366211,138.452148 C24.0366211,140.567393 23.4345763,142.187494 22.2304688,143.3125 C21.0263612,144.437506 19.287609,145 17.0141602,145 L13.3754883,145 L13.3754883,132.150391 L17.409668,132.150391 C19.5073347,132.150391 21.1362247,132.704096 22.2963867,133.811523 C23.4565488,134.918951 24.0366211,136.46581 24.0366211,138.452148 Z M21.206543,138.522461 C21.206543,135.762682 19.9878052,134.382812 17.550293,134.382812 L16.1000977,134.382812 L16.1000977,142.75 L17.269043,142.75 C19.8940561,142.75 21.206543,141.340834 21.206543,138.522461 Z" id="D"></path>
                <path d="M18,194 C26.836556,194 34,186.836556 34,178 C34,169.163444 26.836556,162 18,162 C9.163444,162 2,169.163444 2,178 C2,186.836556 9.163444,194 18,194 Z M18,196 C8.0588745,196 0,187.941125 0,178 C0,168.058875 8.0588745,160 18,160 C27.9411255,160 36,168.058875 36,178 C36,187.941125 27.9411255,196 18,196 Z" id="Oval" fill-rule="nonzero"></path>
                <polygon id="E" points="22.3974609 185 14.9970703 185 14.9970703 172.150391 22.3974609 172.150391 22.3974609 174.382812 17.7216797 174.382812 17.7216797 177.204102 22.0722656 177.204102 22.0722656 179.436523 17.7216797 179.436523 17.7216797 182.75 22.3974609 182.75"></polygon>
            </g>
        </g>
    </g>
</svg>