<?xml version="1.0" encoding="UTF-8" standalone="no"?>
<svg width="20px" height="20px" viewBox="0 0 20 20" version="1.1" xmlns="http://www.w3.org/2000/svg" xmlns:xlink="http://www.w3.org/1999/xlink">
    <!-- Generator: Sketch 39.1 (31720) - http://www.bohemiancoding.com/sketch -->
    <title>close</title>
    <desc>Created with Sketch.</desc>
    <defs></defs>
    <g id="Page-1" stroke="none" stroke-width="1" fill="none" fill-rule="evenodd">
        <g id="close" fill="#FFFFFF">
            <g id="Page-1">
                <g id="noun_754596">
                    <path d="M0.615,19.8016667 C0.508333333,19.8016667 0.401666667,19.7608333 0.32,19.68 C0.1575,19.5175 0.1575,19.2533333 0.32,19.0908333 L19.0908333,0.32 C19.2533333,0.1575 19.5175,0.1575 19.68,0.32 C19.8425,0.4825 19.8425,0.746666667 19.68,0.909166667 L0.909166667,19.68 C0.828333333,19.7608333 0.721666667,19.8016667 0.615,19.8016667 L0.615,19.8016667 L0.615,19.8016667 Z" id="Shape"></path>
                    <path d="M19.385,19.8016667 C19.2783333,19.8016667 19.1716667,19.7608333 19.09,19.68 L0.32,0.909166667 C0.1575,0.746666667 0.1575,0.4825 0.32,0.32 C0.4825,0.1575 0.746666667,0.1575 0.909166667,0.32 L19.68,19.0908333 C19.8425,19.2533333 19.8425,19.5175 19.68,19.68 C19.5983333,19.7608333 19.4916667,19.8016667 19.385,19.8016667 L19.385,19.8016667 L19.385,19.8016667 Z" id="Shape"></path>
                </g>
            </g>
        </g>
    </g>
</svg>